<?xml version="1.0" encoding="utf-8"?>
<!-- Generator: Adobe Illustrator 26.5.0, SVG Export Plug-In . SVG Version: 6.00 Build 0)  -->
<svg version="1.1" id="_x31_0" xmlns="http://www.w3.org/2000/svg" xmlns:xlink="http://www.w3.org/1999/xlink" x="0px" y="0px"
	 viewBox="0 0 512 512" style="enable-background:new 0 0 512 512;" xml:space="preserve">
<g>
	<path d="M392.1,429.3H42.7c-4.1,0-7.5,3.3-7.5,7.5v5.9c0,25.7,20.9,46.6,46.6,46.6H347c29,0,52.5-23.5,52.5-52.5
		C399.6,432.7,396.2,429.3,392.1,429.3z"/>
	<path d="M47.7,390.7c0,1.1,0.2,2,0.3,2.9c0,0.2,0,0.3,0,0.5c0.5,3.1,1.6,5.5,3.4,7.3c0,0,0,0,0,0s0,0,0,0c5,5.1,14.1,5.3,20.1,5.3
		h285.2c8.6,0,15.5-6.8,15.6-15.4c0.1-3.2,0.1-6.4,0.2-9.6c-21.9-19.8-42-42.2-60.1-67.1c-63.7-87.8-88.3-189-74.3-273.3
		c0.9-5.6,2-11.1,3.3-16.5c0,0,0,0,0,0c0,0,0-0.1,0-0.2c-58-3.3-182.7-1.6-182.7-1.6v15.3H8.9c-6.9,0-11.2,7.5-7.6,13.4
		c17.3,28.7,54.6,99.6,54.6,178.4C55.9,267.9,49.5,322.8,47.7,390.7z M175.7,293.5h-36v-29.7h36v-10.8h-36v-25.9
		c0-16.9,13.9-30.8,30.8-30.8c8.5,0,16.2,3.5,21.8,9.1c5.6,5.5,9.1,13.3,9.1,21.7v84.1c0,17-13.9,30.8-30.9,30.8
		c-16.9,0-30.8-13.8-30.8-30.8v-7h36L175.7,293.5L175.7,293.5z"/>
	<path d="M254.3,101.3c0.1,2.7,0.2,5.5,0.4,8.2c0.3,4.5,0.8,9.1,1.3,13.6c0.1,1.2,0.2,2.3,0.4,3.5c0.6,5.1,1.5,10.2,2.4,15.4
		c0.1,0.7,0.2,1.4,0.3,2.1c0.9,5,2,9.9,3.1,14.9c0.2,1,0.4,2,0.7,3c1,4.3,2.2,8.5,3.4,12.8c0.5,1.8,1,3.7,1.5,5.5
		c0.9,3.1,2,6.2,3,9.3c1,3.1,1.9,6.1,3,9.2c0.6,1.6,1.2,3.1,1.8,4.7c12.4,33.8,30,67.4,53.1,99.3c13.6,18.8,28.5,36,44.3,51.7
		c0.5-41.5-1.7-84-20.9-128.6c-23.4-54.6-63.7-131.3,1.6-98.7c19.9,9.9,31.6,28.2,38.4,49.4c0.3,1.1,0.7,2.2,1,3.4
		c0.4,1.4,0.8,2.8,1.2,4.3c0.7,2.9,1.4,5.8,2,8.9c0.1,0.5,0.2,1.1,0.3,1.6c3.9,21.2,4.6,46.7,2.2,76.6c-1.1,13.2-2.6,23.2-2.9,27.4
		c-1.6,17.6,25.3,29.9,33.6-19.9c8.4-49.8,17.8-149.8-62.8-213c-28.4-22.2-68.1-33-101.8-39c-1.1-0.2-2.3-0.4-3.6-0.5
		c-5.2,20.9-7.6,43.2-7.2,66.4C254,95.6,254.2,98.5,254.3,101.3z"/>
	<path d="M466.3,447.9C466.3,447.8,466.3,447.8,466.3,447.9c-1.3-1.6-2.4-3.1-3.2-4.8c-0.1-0.2-0.2-0.4-0.3-0.6
		c-2.7-5.9-1.5-12.6,3.6-20.1c1.3-2.1,3-4.2,5-6.4c17.2-19.1,14.1-34.7,10.7-42.3c-7.6-17-29.6-27.5-57.4-27.5h-43.7v16.1v3.9h4.3
		h39.4c19,0,35,6.4,39.1,15.6c3.1,7.1-2.2,15.3-7.3,20.9c-3.2,3.5-5.8,7-7.8,10.3c-4.4,6.9-6.4,13.3-7,19c-1,7.5,0.6,13.9,2.8,18.8
		c10,22.4,42.2,34.5,67.5,34.5v-20C495.8,465.2,475.4,458.4,466.3,447.9z"/>
</g>
</svg>
