<!--?xml version="1.0" encoding="utf-8"?-->
<!-- Generator: Adobe Illustrator 24.1.1, SVG Export Plug-In . SVG Version: 6.00 Build 0)  -->
<svg version="1.1" id="_x31_0" xmlns="http://www.w3.org/2000/svg" xmlns:xlink="http://www.w3.org/1999/xlink" x="0px" y="0px" viewBox="0 0 512 512" style="width: 256px; height: 256px; opacity: 1;" xml:space="preserve">
<style type="text/css">
	.st0{fill:#374149;}
</style>
<g>
	<path class="st0" d="M492.839,185.343c-2.707-9.214-5.925-16.968-8.414-22.236c0.368-4.754,0.293-10.971-0.95-18.357
		c-3.95-22.675-17.336-43.375-36.79-56.904C384.514,44.76,308.078,39.789,256,39.789c-52.075,0-128.51,4.971-190.682,48.057
		c-19.457,13.529-32.914,34.229-36.793,56.829c-1.314,7.461-1.389,13.678-1.022,18.432c-2.414,5.268-5.632,13.022-8.414,22.236
		C7.243,194.56,0,208.821,0,224.253v32.404c0,16.896,8.632,32.182,22.236,41.107c2.267,16.089,5.486,36.203,9.874,55.442v0.218
		l0.146,0.514c3.072,13.528,6.365,25.086,9.729,34.157C58.443,431.76,95.671,472.211,256,472.211s197.561-40.45,213.943-84.114
		c3.439-9.071,6.728-20.629,9.803-34.45l0.143-0.293v-0.146c4.318-19.239,7.607-39.354,9.803-55.442
		C503.297,288.84,512,273.553,512,256.657v-32.404C512,208.821,504.761,194.56,492.839,185.343z M77.825,105.911
		C137.875,64.292,213.578,61.732,256,61.732c42.425,0,118.125,2.56,178.175,44.178c4.828,3.364,9.218,7.242,12.95,11.703
		c-0.661,5.997-1.828,11.922-3.586,17.7c-1.318,4.532-5.632,7.532-10.386,7.532c-0.807,0-1.61-0.071-2.414-0.218
		c-13.971-3.218-28.893-5.996-44.542-8.339C346.843,128.292,302.668,125,256,125c-65.314,0-125.657,6.511-174.81,17.629
		c-0.804,0.146-1.607,0.218-2.414,0.218c-4.678,0-8.997-3-10.314-7.532c-1.754-5.703-2.925-11.632-3.658-17.628
		C68.536,113.225,72.925,109.275,77.825,105.911z M432.422,402.65c-9.218,11.193-24.211,21.942-51.565,30.136
		c-27.428,8.118-67.146,13.46-125.296,13.386c-77.458,0.074-122.293-9.436-148.7-22.382c-13.31-6.436-21.943-13.678-28.086-21.139
		c-3.504-4.197-6.136-8.482-8.318-12.75c-0.542-1.121-1.082-2.25-1.596-3.464c54.539,11.614,118.357,18.19,186.7,18.19
		c58.532,0,113.746-4.854,162.671-13.536c8.197-1.429,16.282-2.936,24.165-4.578C439.914,391.889,436.857,397.343,432.422,402.65z
		 M490.057,256.657c0,12.729-8.774,23.261-20.478,26.332c-2.778,21.722-6.582,45.275-11.118,65.464l-0.075,0.365
		c-2.41,10.678-5.046,20.335-7.825,28.378l-2.854,0.657c-55.368,12.29-121.343,19.458-192.146,19.458
		c-70.729,0-136.704-7.168-192.071-19.458l-2.05-0.435c-2.778-8.046-5.41-17.85-7.825-28.6l-0.071-0.365
		c-4.611-20.189-8.414-43.742-11.118-65.535c-11.778-3-20.482-13.532-20.482-26.261v-32.404c0-11.114,6.657-20.625,16.239-24.864
		c4.021-18.214,12.068-32.697,12.068-32.697s-2.122-6.582-0.075-18.286c1.393-8.046,4.318-15.507,8.561-22.31
		c0.657,3.807,1.607,7.607,2.703,11.339c2.343,7.825,9.582,12.725,17.336,12.725c1.318,0,2.707-0.142,4.025-0.435
		c48.493-10.972,108.397-17.411,173.2-17.411c40.122,0,78.418,2.482,113.25,6.997c0.667,0.086,1.335,0.171,2.003,0.261
		c4.675,0.618,9.3,1.268,13.843,1.961c15.506,2.339,30.21,5.046,44.032,8.193c1.318,0.293,2.707,0.435,4.025,0.435
		c7.754,0,15.068-4.9,17.407-12.725c0.842-2.868,1.554-5.778,2.157-8.697c0.204-0.835,0.422-1.699,0.622-2.514
		c4.2,6.771,7.104,14.186,8.486,22.182c1.975,11.704-0.146,18.286-0.146,18.286s8.118,14.482,12.143,32.697
		c9.582,4.239,16.235,13.75,16.235,24.864V256.657z" style="fill: rgb(75, 75, 75);"></path>
	<path class="st0" d="M256,149.504c-46.225,0-89.964,3.293-128.732,9.214c-18.143,2.689-35.111,6.021-50.804,9.828
		c-1.346,0.314-2.739,0.614-4.064,0.933c0.003,0.01,0.01,0.021,0.014,0.032c-0.046,0.01-0.1,0.022-0.146,0.035
		c11.189,22.454,29.914,42.2,53.903,57.707c34.526,22.458,79.946,36.061,129.829,36.061c49.739,0,95.232-13.603,129.757-35.986
		c22.065-14.264,39.658-32.207,51.061-52.461c0.982-1.722,1.997-3.435,2.882-5.182c-0.01-0.004-0.025-0.004-0.036-0.007
		c0.022-0.046,0.05-0.09,0.072-0.133C389.707,157.04,325.707,149.504,256,149.504z M145.41,193.025c0,2.996-2.414,5.41-5.414,5.41
		h-8.047c-2.996,0-5.41-2.414-5.41-5.41v-8.046c0-3,2.414-5.414,5.41-5.414h8.047c3,0,5.414,2.414,5.414,5.414V193.025z
		 M344.357,226.96h-32.328V189H199.975v37.961h-32.332v-57.857h176.714V226.96z M385.464,193.025c0,2.996-2.414,5.41-5.414,5.41
		h-8.047c-2.996,0-5.41-2.414-5.41-5.41v-8.046c0-3,2.414-5.414,5.41-5.414h8.047c3,0,5.414,2.414,5.414,5.414V193.025z" style="fill: rgb(75, 75, 75);"></path>
	<path class="st0" d="M226.743,104.153h58.514c7.39,0,13.461-6.071,13.461-13.457c0-7.461-6.071-13.458-13.461-13.458h-58.514
		c-7.461,0-13.458,5.997-13.458,13.458C213.286,98.082,219.282,104.153,226.743,104.153z" style="fill: rgb(75, 75, 75);"></path>
</g>
</svg>
