<?xml version="1.0" encoding="utf-8"?>
<!-- Generator: Adobe Illustrator 26.5.0, SVG Export Plug-In . SVG Version: 6.00 Build 0)  -->
<svg version="1.1" id="レイヤー_1" xmlns="http://www.w3.org/2000/svg" xmlns:xlink="http://www.w3.org/1999/xlink" x="0px"
	 y="0px" viewBox="0 0 510.2 396.5" style="enable-background:new 0 0 510.2 396.5;" xml:space="preserve">
<g>
	<path d="M453.6,368.4c-0.2,3.3-0.2,6.4-0.7,9.5c-1.9,12.7-9.4,18-20.5,18.5c-8.3,0.4-16.8-3.9-19.6-13.4c-1.3-4.6-1.7-9.5-2.6-14.5
		c-103.3,0-207.1,0-311,0c-0.2,3.2-0.3,6.4-0.8,9.7c-1.2,9.9-8.1,16.9-18,17.9c-12.7,1.3-21.8-6.4-23.4-17.9
		c-0.4-3.2-0.5-6.4-0.7-9.7c-3.2-0.5-6.4-0.8-9.6-1.4C26.3,363,12.1,351,4.1,331.7c-2.8-6.7-4-14-4-21.3C0,226.2-0.1,142.1,0.1,57.8
		C0.2,32.9,14.6,12.5,37,3.8c6.6-2.6,13.7-3.8,20.8-3.8C189.3,0,320.7,0,452.2,0.1c24.8,0,45.2,14.3,54,36.9
		c2.6,6.7,3.9,13.8,3.9,21c0.1,84.2,0.2,168.3,0,252.5c-0.1,24.7-14.1,45.2-36.9,53.9c-4.8,1.8-10.2,2.5-15.3,3.5
		C456.4,368.1,455,368.2,453.6,368.4z M254.9,325.9c65.4,0,130.6,0,196,0c0.9,0,1.9,0,2.8,0c6.9-0.4,11.5-3.9,13.2-10.1
		c0.6-2,0.7-4.1,0.7-6c0-83.8,0-167.5,0-251.3c0-0.7,0-1.4,0-2.1c-0.4-6.8-3.9-11.6-10-13.3c-2.1-0.6-4.3-0.7-6.5-0.7
		c-130.6,0-261.3,0-392,0c-0.9,0-1.7,0-2.6,0c-6.9,0.4-11.6,3.8-13.3,10c-0.6,2-0.7,4.2-0.7,6.3c0,83.7,0,167.4,0,251.1
		c0,0.8,0,1.6,0,2.4c0.4,6.8,3.8,11.3,9.9,13.1c2,0.6,4.2,0.8,6.3,0.8C124,325.9,189.5,325.9,254.9,325.9z"/>
	<path d="M212.6,85c34.9,0,69.7-0.1,104.7,0.1c7.3,0,13.9,2.1,18.4,8.3c3.1,4.2,4.4,9.1,4.4,14.2c0.1,51.1,0.1,102.2,0,153.3
		c0,7.2-2.3,13.7-8.4,18.1c-4.3,3.1-9.4,4.3-14.7,4.3c-61.2,0-122.3,0-183.5,0c-8.6,0-17.2,0.2-25.7-0.1c-7-0.2-13.4-2.2-17.9-8
		c-3.2-4.2-4.6-9-4.6-14.1c-0.1-51.3-0.1-102.7,0-154c0-13.2,9.4-22.1,22.8-22.1C142.8,85,177.6,85,212.6,85z"/>
	<path d="M382.7,183.9c0-30-0.1-60.2,0.1-90.2c0-6.6,1.7-12.8,7.1-17.4c7.2-6,15.1-6.9,23.5-3.1c6.7,3,9.9,8.6,11.2,15.6
		c0.4,2.4,0.5,4.8,0.5,7.3c0,59.4,0.1,118.8,0,178.4c0,7.3-2,14-8.2,18.5c-12.8,9.3-31.5,2.9-33.7-13.9c-0.3-2.4-0.5-4.7-0.5-7.1
		C382.6,242.7,382.7,213.3,382.7,183.9z"/>
</g>
</svg>
