<?xml version="1.0" encoding="utf-8"?>
<!-- Generator: Adobe Illustrator 26.5.0, SVG Export Plug-In . SVG Version: 6.00 Build 0)  -->
<svg version="1.1" id="_x31_0" xmlns="http://www.w3.org/2000/svg" xmlns:xlink="http://www.w3.org/1999/xlink" x="0px" y="0px"
	 viewBox="0 0 566.9 524.4" style="enable-background:new 0 0 566.9 524.4;" xml:space="preserve">
<g>
	<path d="M205.5,343.1c15.2-1.3,26.6-14.4,26.6-29.6v-78.4c0-7.9-3.3-15.2-8.6-20.4c-5.4-5.4-12.7-8.7-20.9-8.6
		c-16,0.2-28.6,13.7-28.6,29.6v23.8h33.9v10.2H174v27.9h33.9v10.1H174v6.6C174.1,331,188.5,344.5,205.5,343.1z"/>
	<path d="M534.2,416.5c9.1-20,9.6-41.5,0.9-61c-7.7-17.2-21.7-31-40.4-40c-3.5-1.7-7.1-3.1-10.9-4.4c2-6,3.6-12.7,4.9-20.2
		c6.9-40.8,7.5-76.7,1.8-109.7c-9.3-54.5-35.1-98.7-76.7-131.3c-25-19.6-58.3-33.5-101.5-42.6c-4.2-0.9-8.6-1.7-13-2.5
		c-1.9-0.3-4.5-0.8-7.7-1l-28.4-2.2L255.8,1l-0.1,0.3C233.2,0.4,202.8,0,164.9,0c-36.8,0-67.4,0.4-67.7,0.4L69,0.8
		c-7.7,0.1-13.8,6.3-13.8,14v0H51c-18.4,0-35.5,10-44.5,26s-8.6,35.6,0.9,51.3C21,114.7,52.6,174,52.6,237.8c0,15.9-1.4,36.5-3,60.3
		c-1.8,26.3-3.8,56.1-4.7,89.6v0.6v0.6c0,2.1,0.1,4,0.3,5.4v1.2l0.5,3.4c0,0.1,0,0.2,0.1,0.3c-7.9,8.8-12.6,20.4-12.6,33.1v5.6
		c0,47.8,38.7,86.5,86.5,86.5h249.5c29.1,0,55.2-13.6,72-34.8c22.6,21.2,55.9,31,83.2,31h9.6c18.3,0,33.1-14.8,33.1-33.1v-37.9
		C567.1,431.4,552.4,416.6,534.2,416.5L534.2,416.5z M288.4,46.3c1.2,0.1,2.4,0.3,3.4,0.5c6.6,1.2,13.4,2.5,20.3,4.2
		c26.4,6.2,54.3,16,75.5,32.5c75.8,59.5,67,153.5,59.1,200.4c-1.5,8.8-3.6,15.6-6,20.6c-9.9,20.6-25.2,12.4-25.7,0
		c0-0.6,0-1.3,0-1.9c0.3-4,1.7-13.4,2.7-25.8c2.3-28.1,1.6-52.1-2.1-72.1c-0.1-0.5-0.2-1-0.3-1.5c-0.6-2.9-1.2-5.6-1.9-8.4
		c-0.4-1.4-0.8-2.7-1.1-4c-0.3-1.1-0.7-2.2-0.9-3.2c-6.4-19.9-17.4-37.2-36.1-46.5c-61.4-30.7-23.5,41.5-1.5,92.8
		c10.4,24.1,15.5,47.5,17.8,70.5c0.5,5.1,0.9,10.2,1.2,15.2c0.7,11.9,0.8,23.6,0.6,35.3c-12.4-12.3-24.2-25.6-35.1-39.9
		c-2.2-2.9-4.4-5.8-6.5-8.8c-21.7-30-38.3-61.6-50-93.4c-0.6-1.5-1.1-2.9-1.7-4.4c-1-2.9-1.9-5.7-2.8-8.7c-0.9-2.9-2-5.8-2.8-8.7
		c-0.5-1.7-0.9-3.5-1.4-5.2c-1.1-4-2.3-8-3.2-12c-0.3-0.9-0.5-1.9-0.7-2.8c-1-4.7-2.1-9.3-2.9-14c-0.1-0.7-0.2-1.3-0.3-2
		c-0.8-4.9-1.7-9.7-2.3-14.5c-0.2-1.1-0.3-2.2-0.4-3.3c-0.5-4.2-0.9-8.6-1.2-12.8c-0.2-2.5-0.3-5.2-0.4-7.7c-0.1-2.6-0.3-5.4-0.2-8
		C281.3,86.9,283.5,65.9,288.4,46.3z M43.9,70.1c-3.4-5.6,0.7-12.6,7.1-12.6h46.8V43.1c0,0,88.4-1.2,147.4,0.5
		c9,0.3,17.3,0.6,24.4,1c0,0.1,0,0.2,0,0.2c-1.2,5.1-2.3,10.3-3.1,15.5c-13.2,79.3,10,174.5,69.9,257.1c7,9.6,14.3,18.8,21.9,27.6
		c10.9,12.7,22.5,24.5,34.7,35.5c0,0.7,0,1.4-0.1,2.1h-32.1h-2.5H87.7c1.9-60.9,7.5-110.4,7.5-144.7C95.2,163.8,60.1,97.1,43.9,70.1
		z M369.1,481.7H119.6c-23.5,0-42.7-18.6-43.8-41.8c0-0.7,0-1.3,0-2v-5.6c0-4,3.2-7.1,7.1-7.1h321h7.7c1.4,0,2.8,0.5,3.9,1.2
		c1.4,0.9,2.4,2.3,2.8,3.9c0.2,0.6,0.3,1.2,0.2,1.9c0,2.4-0.2,4.7-0.5,7s-0.8,4.5-1.4,6.7l0,0C410.6,466.6,391.6,481.7,369.1,481.7z
		 M524.3,478c-23.8,0-54.1-11.4-63.5-32.5c-0.2-0.4-0.3-0.7-0.5-1.1c-1.8-4.4-3-10.1-2.2-16.6c0.2-2.3,0.7-4.8,1.6-7.3l0,0
		c1.1-3.3,2.7-6.9,5-10.6c1.9-3.1,4.3-6.4,7.3-9.7c4.8-5.3,9.8-13,6.9-19.7c-3.9-8.7-18.9-14.7-36.8-14.7h-6H436h-35V347h18.7h22.4
		c5.9,0,11.5,0.5,16.7,1.5c18.1,3.3,31.8,12,37.3,24.4c3.2,7.1,6.1,21.8-10.1,39.8c-1.9,2.1-3.5,4-4.7,6c-4.8,7.1-5.9,13.4-3.4,18.9
		c0.1,0.2,0.2,0.4,0.3,0.6c0.8,1.6,1.8,3,3,4.5c8.6,9.9,27.8,16.3,43,16.4V478H524.3z"/>
</g>
</svg>
